<?xml version="1.0" encoding="UTF-8"?>
<svg width="34px" height="34px" viewBox="0 0 34 34" version="1.1" xmlns="http://www.w3.org/2000/svg" xmlns:xlink="http://www.w3.org/1999/xlink">
    <!-- Generator: Sketch 55.2 (78181) - https://sketchapp.com -->
    <title>cui-react-lg</title>
    <desc>Created with Sketch.</desc>
    <g id="Wayback-Imagery-Include" stroke="none" stroke-width="1" fill="none" fill-rule="evenodd">
        <g id="Artboard" transform="translate(-197.000000, -338.000000)">
            <g id="cui-react-lg" transform="translate(192.000000, 333.800000)">
                <circle id="Oval" fill="#D8D8D8" cx="21.7" cy="21.5" r="16.5"></circle>
                <g id="web-32" transform="translate(21.000000, 21.200000) rotate(-19.000000) translate(-21.000000, -21.200000) translate(5.000000, 5.200000)">
                    <path d="M16.5,2.2 C8.60232808,2.2 2.2,8.60232808 2.2,16.5 C2.2,24.3976719 8.60232808,30.8 16.5,30.8 C24.3976719,30.8 30.8,24.3976719 30.8,16.5 C30.8,12.7074042 29.2933972,9.07014324 26.611627,6.38837303 C23.9298568,3.70660282 20.2925958,2.2 16.5,2.2 Z M3.225,17 L8.215,17 C8.24597667,19.0312674 8.54900656,21.0492245 9.116,23 L4.903,23 C3.8735797,21.1622719 3.29826638,19.1051325 3.225,17 L3.225,17 Z M17,9 L17,3.246 C19.29,3.531 21.295,5.738 22.523,9 L17,9 Z M22.862,10 C23.4458009,11.9476882 23.7567609,13.9669093 23.786,16 L17,16 L17,10 L22.862,10 Z M16,3.246 L16,9 L10.477,9 C11.705,5.738 13.709,3.531 16,3.246 Z M16,10 L16,16 L9.214,16 C9.24323906,13.9669093 9.55419912,11.9476882 10.138,10 L16,10 Z M8.215,16 L3.225,16 C3.29826638,13.8948675 3.8735797,11.8377281 4.903,10 L9.116,10 C8.54900656,11.9507755 8.24597667,13.9687326 8.215,16 L8.215,16 Z M9.215,17 L16,17 L16,23 L10.138,23 C9.55419912,21.0523118 9.24323906,19.0330907 9.214,17 L9.215,17 Z M16,24 L16,29.754 C13.71,29.469 11.705,27.262 10.477,24 L16,24 Z M17,29.754 L17,24 L22.523,24 C21.295,27.262 19.291,29.469 17,29.754 Z M17,23 L17,17 L23.786,17 C23.7567609,19.0330907 23.4458009,21.0523118 22.862,23 L17,23 Z M24.785,17 L29.775,17 C29.7017336,19.1051325 29.1264203,21.1622719 28.097,23 L23.884,23 C24.4509934,21.0492245 24.7540233,19.0312674 24.785,17 L24.785,17 Z M24.785,16 C24.7540233,13.9687326 24.4509934,11.9507755 23.884,10 L28.097,10 C29.1264203,11.8377281 29.7017336,13.8948675 29.775,16 L24.785,16 Z M27.481,9 L23.553,9 C22.9017333,6.99507433 21.7570008,5.18599127 20.224,3.739 C23.1782737,4.60136465 25.7426372,6.46041331 27.481,9 L27.481,9 Z M12.776,3.739 C11.2426351,5.18587782 10.0975526,6.99497071 9.446,9 L5.52,9 C7.25836284,6.46041331 9.8227263,4.60136465 12.777,3.739 L12.776,3.739 Z M5.519,24 L9.447,24 C10.0982667,26.0049257 11.2429992,27.8140087 12.776,29.261 C9.8217263,28.3986354 7.25736284,26.5395867 5.519,24 Z M20.224,29.261 C21.7573649,27.8141222 22.9024474,26.0050293 23.554,24 L27.481,24 C25.7426372,26.5395867 23.1782737,28.3986354 20.224,29.261 L20.224,29.261 Z" id="Shape" fill="#000000" fill-rule="nonzero"></path>
                    <polygon id="Path" points="0 0 32 0 32 32 0 32"></polygon>
                </g>
            </g>
        </g>
    </g>
</svg>